<svg width="253" height="253" viewBox="0 0 253 253" fill="none" xmlns="http://www.w3.org/2000/svg">
<g id="Meter ">
<path id="Ellipse 1" d="M253 126.5C253 92.9501 239.672 60.7743 215.949 37.051C192.226 13.3276 160.05 2.53295e-06 126.5 0C92.9501 -2.53295e-06 60.7744 13.3276 37.051 37.051C13.3276 60.7743 5.06589e-06 92.9501 0 126.5L126.5 126.5H253Z" fill="white"/>
<g id="sad-section">
<path id="Ellipse 6" d="M61.9468 17.7106C43.2305 28.8164 27.696 44.563 16.8451 63.4282C5.99414 82.2934 0.193781 103.639 0.00477028 125.401L66.5385 125.979C66.6281 115.663 69.3776 105.545 74.5212 96.6026C79.6648 87.6601 85.1281 80.2644 94 75L61.9468 17.7106Z" fill="#FF7B7C"/>
<g id="face-sad">
<circle id="sad-face" cx="48" cy="82" r="25" fill="white"/>
<circle id="sad-eye-left" cx="36" cy="75" r="3" fill="black"/>
<circle id="sad-eye-right" cx="59" cy="75" r="3" fill="black"/>
<path id="sad-droop" d="M58 95.0605C58 97.1744 53.0751 95.0605 47 95.0605C40.9249 95.0605 36 97.1744 36 95.0605C36 92.9465 40.9249 89 47 89C53.0751 89 58 92.9465 58 95.0605Z" fill="black"/>
</g>
</g>
<g id="neutral-section">
<path id="Ellipse 4" d="M188.59 16.286C170.025 5.82766 149.12 0.22807 127.814 0.00681984C106.507 -0.214431 85.49 4.94982 66.7125 15.0204L98.1594 73.6562C107.06 68.8826 117.023 66.4346 127.123 66.5395C137.222 66.6444 147.132 69.2987 155.932 74.2562L188.59 16.286Z" fill="#FFCA00"/>
<g id="face-neutral">
<circle id="neutral-face" cx="127" cy="33" r="25" fill="white"/>
<circle id="neutral-eye-left" cx="116" cy="26" r="3" fill="black"/>
<circle id="neutral-eye-right" cx="139" cy="26" r="3" fill="black"/>
<rect id="neutral-meh" x="116" y="42" width="23" height="3" rx="1.5" fill="#020202"/>
</g>
</g>
<g id="happy-section">
<path id="Ellipse 5" d="M253 126.5C253 104.874 247.456 83.609 236.897 64.7359C226.338 45.8628 211.117 30.0119 192.687 18.6967L159 77C167.736 82.3636 173.825 88.2762 178.83 97.2225C183.836 106.169 186.464 116.249 186.464 126.5H253Z" fill="#75D7A3"/>
<g id="face-happy">
<circle id="happy-face" cx="205" cy="79" r="25" fill="white"/>
<circle id="happy-eye-left" cx="197" cy="72" r="3" fill="black"/>
<circle id="happy-eye-right" cx="217" cy="73" r="3" fill="black"/>
<path id="smile" d="M195 86.9395C195 84.8256 199.925 86.9395 206 86.9395C212.075 86.9395 217 84.8256 217 86.9395C217 89.0535 212.075 94.5 206 94.5C199.925 94.5 195 89.0535 195 86.9395Z" fill="black"/>
</g>
</g>
<g id="needle">
<path id="needle-top" d="M125.097 71.1939L131.159 126.072H119.034L125.097 71.1939Z" fill="black"/>
<path id="needle-bottom" d="M119.097 125.875C119.097 127.805 119.729 129.655 120.854 131.019C121.979 132.384 123.505 133.15 125.097 133.15C126.688 133.15 128.214 132.384 129.339 131.019C130.464 129.655 131.097 127.805 131.097 125.875L125.097 125.875L119.097 125.875Z" fill="black"/>
<circle id="needle-pivot" cx="125.225" cy="125.398" r="4.5" transform="rotate(1.72257 125.225 125.398)" fill="#FFFCFC"/>
</g>
</g>
</svg>
